<?xml version="1.0" encoding="utf-8"?>
<svg viewBox="0 0 194 48" fill="none" xmlns="http://www.w3.org/2000/svg">
  <defs>
    <radialGradient id="paint0_radial_31_1501" cx="0" cy="0" r="1" gradientUnits="userSpaceOnUse" gradientTransform="matrix(-18.499927, 14.500064, -14.500064, -18.499927, -10.474716, 67.021297)">
      <stop stop-color="#EEEBF0"/>
      <stop offset="0.4935" stop-color="#D1BEE3"/>
      <stop offset="1" stop-color="#D0BCE2"/>
    </radialGradient>
    <linearGradient id="paint1_linear_31_1501" x1="12" y1="18" x2="4" y2="18" gradientUnits="userSpaceOnUse" gradientTransform="matrix(1, 0, 0, 1, -35.474716, 55.521297)">
      <stop stop-color="#D5B2C0" stop-opacity="0"/>
      <stop offset="1" stop-color="#B4878D"/>
    </linearGradient>
    <linearGradient id="paint2_linear_31_1501" x1="16" y1="27" x2="16" y2="31" gradientUnits="userSpaceOnUse" gradientTransform="matrix(1, 0, 0, 1, -35.474716, 55.521297)">
      <stop stop-color="#B17EDB" stop-opacity="0"/>
      <stop offset="1" stop-color="#A56BD6"/>
    </linearGradient>
    <radialGradient id="paint3_radial_31_1501" cx="0" cy="0" r="1" gradientUnits="userSpaceOnUse" gradientTransform="matrix(5.000002, -0.5, 1.911107, 19.111082, -10.474716, 69.021297)">
      <stop stop-color="#F0EAF6"/>
      <stop offset="1" stop-color="#E7E0EF" stop-opacity="0"/>
    </radialGradient>
    <linearGradient id="paint4_linear_31_1501" x1="4" y1="3.94995" x2="4" y2="13.05" gradientUnits="userSpaceOnUse" gradientTransform="matrix(1, 0, 0, 1, -35.474716, 55.521297)">
      <stop stop-color="#EA248A"/>
      <stop offset="1" stop-color="#DF2232"/>
    </linearGradient>
    <linearGradient id="paint5_linear_31_1501" x1="3" y1="12" x2="3" y2="23" gradientUnits="userSpaceOnUse" gradientTransform="matrix(1, 0, 0, 1, -35.474716, 55.521297)">
      <stop stop-color="#E93273"/>
      <stop offset="1" stop-color="#D21844"/>
    </linearGradient>
    <linearGradient id="paint6_linear_31_1501" x1="15.9982" y1="17.7006" x2="15.9982" y2="11.3908" gradientUnits="userSpaceOnUse" gradientTransform="matrix(1, 0, 0, 1, -35.474716, 55.521297)">
      <stop offset="0.0056" stop-color="#443E75"/>
      <stop offset="1" stop-color="#2F1A3B"/>
    </linearGradient>
    <linearGradient id="paint7_linear_31_1501" x1="15.9982" y1="25.6859" x2="15.9982" y2="22.8893" gradientUnits="userSpaceOnUse" gradientTransform="matrix(1, 0, 0, 1, -35.474716, 55.521297)">
      <stop offset="0.0056" stop-color="#39325E"/>
      <stop offset="1" stop-color="#2B1831"/>
    </linearGradient>
    <radialGradient id="paint8_radial_31_1501" cx="0" cy="0" r="1" gradientUnits="userSpaceOnUse" gradientTransform="matrix(-0.499991, 1.999999, -1.999999, -0.499991, -31.474716, 58.521297)">
      <stop stop-color="#FF6C82"/>
      <stop offset="0.4414" stop-color="#FF2455"/>
      <stop offset="1" stop-color="#D9206C"/>
    </radialGradient>
    <linearGradient id="paint9_linear_31_1501" x1="29" y1="4" x2="29" y2="13.09" gradientUnits="userSpaceOnUse" gradientTransform="matrix(1, 0, 0, 1, -35.474716, 55.521297)">
      <stop stop-color="#EA248A"/>
      <stop offset="1" stop-color="#DF2232"/>
    </linearGradient>
    <radialGradient id="paint10_radial_31_1501" cx="0" cy="0" r="1" gradientUnits="userSpaceOnUse" gradientTransform="matrix(-0.516658, 2.066668, -2.066668, -0.516658, -6.458015, 58.554627)">
      <stop stop-color="#FF6C82"/>
      <stop offset="0.4414" stop-color="#FF2455"/>
      <stop offset="1" stop-color="#D9206C"/>
    </radialGradient>
    <radialGradient id="paint11_radial_31_1501" cx="0" cy="0" r="1" gradientUnits="userSpaceOnUse" gradientTransform="matrix(-2.5, 0.500003, -0.684277, -3.421363, -25.974716, 70.521297)">
      <stop stop-color="#322649"/>
      <stop offset="1" stop-color="#342950" stop-opacity="0"/>
    </radialGradient>
    <radialGradient id="paint12_radial_31_1501" cx="0" cy="0" r="1" gradientUnits="userSpaceOnUse" gradientTransform="matrix(-2.5, 0.500003, -0.684277, -3.421363, -14.474716, 70.521297)">
      <stop stop-color="#322649"/>
      <stop offset="1" stop-color="#342950" stop-opacity="0"/>
    </radialGradient>
    <linearGradient id="paint13_linear_31_1501" x1="16" y1="3" x2="14.5" y2="6.5" gradientUnits="userSpaceOnUse" gradientTransform="matrix(1, 0, 0, 1, -35.474716, 55.521297)">
      <stop stop-color="#FFCE2B"/>
      <stop offset="1" stop-color="#D9862D"/>
    </linearGradient>
    <radialGradient id="paint14_radial_31_1501" cx="0" cy="0" r="1" gradientUnits="userSpaceOnUse" gradientTransform="matrix(0, 3, -10, 0, -19.474716, 59.521297)">
      <stop offset="0.4309" stop-color="#CA7E29" stop-opacity="0"/>
      <stop offset="1" stop-color="#673F13"/>
    </radialGradient>
    <linearGradient id="paint15_linear_31_1501" x1="29" y1="11.9301" x2="29" y2="22.9401" gradientUnits="userSpaceOnUse" gradientTransform="matrix(1, 0, 0, 1, -35.474716, 55.521297)">
      <stop stop-color="#FF30AA"/>
      <stop offset="1" stop-color="#FF2353"/>
    </linearGradient>
    <linearGradient id="paint16_linear_31_1501" x1="11.5" y1="14" x2="9" y2="14" gradientUnits="userSpaceOnUse" gradientTransform="matrix(1, 0, 0, 1, -35.474716, 55.521297)">
      <stop stop-color="#29B6FE"/>
      <stop offset="1" stop-color="#1769A8"/>
    </linearGradient>
    <radialGradient id="paint17_radial_31_1501" cx="0" cy="0" r="1" gradientUnits="userSpaceOnUse" gradientTransform="matrix(0, 2.5, -1.14393, 0, -24.474716, 69.021297)">
      <stop stop-color="#54C8FF"/>
      <stop offset="1" stop-color="#54C8FF" stop-opacity="0"/>
    </radialGradient>
    <linearGradient id="paint18_linear_31_1501" x1="23" y1="14" x2="20.5" y2="14" gradientUnits="userSpaceOnUse" gradientTransform="matrix(1, 0, 0, 1, -35.474716, 55.521297)">
      <stop stop-color="#29B6FE"/>
      <stop offset="1" stop-color="#1769A8"/>
    </linearGradient>
    <radialGradient id="paint19_radial_31_1501" cx="0" cy="0" r="1" gradientUnits="userSpaceOnUse" gradientTransform="matrix(0, 2.5, -1.14393, 0, -12.974716, 69.021297)">
      <stop stop-color="#54C8FF"/>
      <stop offset="1" stop-color="#54C8FF" stop-opacity="0"/>
    </radialGradient>
    <filter id="filter0_f_31_1501" x="3" y="4.5" width="1.25" height="7" filterUnits="userSpaceOnUse" color-interpolation-filters="sRGB">
      <feFlood flood-opacity="0" result="BackgroundImageFix"/>
      <feBlend mode="normal" in="SourceGraphic" in2="BackgroundImageFix" result="shape"/>
      <feGaussianBlur stdDeviation="0.25" result="effect1_foregroundBlur_31_1501"/>
    </filter>
    <linearGradient id="paint20_linear_31_1501" x1="3.5" y1="7" x2="3.5" y2="9" gradientUnits="userSpaceOnUse">
      <stop stop-color="#FF96CB"/>
      <stop offset="1" stop-color="#FF6DB7" stop-opacity="0"/>
    </linearGradient>
    <filter id="filter1_f_31_1501" x="28" y="4.5" width="1.25" height="7" filterUnits="userSpaceOnUse" color-interpolation-filters="sRGB">
      <feFlood flood-opacity="0" result="BackgroundImageFix"/>
      <feBlend mode="normal" in="SourceGraphic" in2="BackgroundImageFix" result="shape"/>
      <feGaussianBlur stdDeviation="0.25" result="effect1_foregroundBlur_31_1501"/>
    </filter>
    <linearGradient id="paint21_linear_31_1501" x1="28.5" y1="7" x2="28.5" y2="9" gradientUnits="userSpaceOnUse">
      <stop stop-color="#FF96CB"/>
      <stop offset="1" stop-color="#FF6DB7" stop-opacity="0"/>
    </linearGradient>
    <radialGradient id="paint22_radial_31_1501" cx="0" cy="0" r="1" gradientUnits="userSpaceOnUse" gradientTransform="matrix(0, 1.5, -1, 0, -6.474716, 69.021297)">
      <stop stop-color="#FF72C1"/>
      <stop offset="1" stop-color="#FF6EBF" stop-opacity="0"/>
    </radialGradient>
    <radialGradient id="paint23_radial_31_1501" cx="0" cy="0" r="1" gradientUnits="userSpaceOnUse" gradientTransform="matrix(0, 4.5, -0.55944, 0, -6.474716, 72.021297)">
      <stop stop-color="#FF4B9C"/>
      <stop offset="1" stop-color="#FF73C1" stop-opacity="0"/>
    </radialGradient>
    <radialGradient id="paint24_radial_31_1501" cx="0" cy="0" r="1" gradientUnits="userSpaceOnUse" gradientTransform="matrix(0, 1, -1, 0, -15.474716, 59.521297)">
      <stop stop-color="#FFEA60"/>
      <stop offset="1" stop-color="#FFEF66" stop-opacity="0"/>
    </radialGradient>
    <linearGradient gradientUnits="userSpaceOnUse" x1="-1.228" y1="60.169" x2="-1.228" y2="77.127" id="gradient-0">
      <stop offset="0" style="stop-color: rgba(103, 82, 180, 1)"/>
      <stop offset="1" style="stop-color: rgb(79, 42, 111);"/>
    </linearGradient>
    <linearGradient gradientUnits="userSpaceOnUse" x1="17.096" y1="60.194" x2="17.096" y2="83.314" id="gradient-1">
      <stop offset="0" style="stop-color: rgba(103, 82, 180, 1)"/>
      <stop offset="1" style="stop-color: rgb(79, 42, 111);"/>
    </linearGradient>
    <linearGradient gradientUnits="userSpaceOnUse" x1="35.42" y1="60.172" x2="35.42" y2="77.135" id="gradient-2">
      <stop offset="0" style="stop-color: rgba(103, 82, 180, 1)"/>
      <stop offset="1" style="stop-color: rgb(79, 42, 111);"/>
    </linearGradient>
    <linearGradient gradientUnits="userSpaceOnUse" x1="53.254" y1="60.199" x2="53.254" y2="76.931" id="gradient-3">
      <stop offset="0" style="stop-color: rgba(103, 82, 180, 1)"/>
      <stop offset="1" style="stop-color: rgb(79, 42, 111);"/>
    </linearGradient>
    <linearGradient gradientUnits="userSpaceOnUse" x1="72.139" y1="60.18" x2="72.139" y2="77.098" id="gradient-4">
      <stop offset="0" style="stop-color: rgba(103, 82, 180, 1)"/>
      <stop offset="1" style="stop-color: rgb(66, 30, 123);"/>
    </linearGradient>
    <linearGradient gradientUnits="userSpaceOnUse" x1="108.748" y1="60.165" x2="108.748" y2="77.137" id="gradient-5">
      <stop offset="0" style="stop-color: rgba(103, 82, 180, 1)"/>
      <stop offset="1" style="stop-color: rgb(66, 30, 123);"/>
    </linearGradient>
    <linearGradient gradientUnits="userSpaceOnUse" x1="126.584" y1="60.179" x2="126.584" y2="76.931" id="gradient-6">
      <stop offset="0" style="stop-color: rgba(103, 82, 180, 1)"/>
      <stop offset="1" style="stop-color: rgb(66, 30, 123);"/>
    </linearGradient>
    <linearGradient gradientUnits="userSpaceOnUse" x1="90.464" y1="60.195" x2="90.464" y2="83.032" id="gradient-7">
      <stop offset="0" style="stop-color: rgba(103, 82, 180, 1)"/>
      <stop offset="1" style="stop-color: rgb(66, 30, 123);"/>
    </linearGradient>
    <linearGradient gradientUnits="userSpaceOnUse" x1="139.821" y1="56.525" x2="139.821" y2="76.933" id="gradient-8">
      <stop offset="0" style="stop-color: rgba(103, 82, 180, 1)"/>
      <stop offset="1" style="stop-color: rgb(66, 30, 123);"/>
    </linearGradient>
  </defs>
  <g transform="matrix(1.05705, 0, 0, 1.05705, 43.860264, -54.550594)" style="">
    <path d="M -13.425 85.521 L -25.525 85.521 C -28.815 85.521 -31.475 82.861 -31.475 79.571 L -31.475 67.551 C -31.475 64.221 -28.775 61.521 -25.445 61.521 L -13.495 61.521 C -10.175 61.521 -7.475 64.221 -7.475 67.551 L -7.475 79.581 C -7.475 82.861 -10.135 85.521 -13.425 85.521 Z" fill="url(#paint0_radial_31_1501)"/>
    <path d="M -31.475 67.521 C -31.475 64.208 -28.788 61.521 -25.475 61.521 L -23.475 61.521 L -23.475 85.521 L -25.475 85.521 C -28.788 85.521 -31.475 82.835 -31.475 79.521 L -31.475 67.521 Z" fill="url(#paint1_linear_31_1501)"/>
    <path d="M -31.475 79.521 L -7.475 79.521 C -7.475 82.835 -10.161 85.521 -13.475 85.521 L -25.475 85.521 C -28.788 85.521 -31.475 82.835 -31.475 79.521 Z" fill="url(#paint2_linear_31_1501)"/>
    <path d="M -15.475 61.521 L -13.475 61.521 C -10.161 61.521 -7.475 64.208 -7.475 67.521 L -7.475 79.521 C -7.475 82.835 -10.161 85.521 -13.475 85.521 L -15.475 85.521 L -15.475 61.521 Z" fill="url(#paint3_radial_31_1501)"/>
    <path d="M -31.975 59.471 L -31.975 68.571" stroke="url(#paint4_linear_31_1501)" stroke-miterlimit="10"/>
    <path d="M -31.475 67.521 L -31.475 78.521 C -32.575 78.521 -33.475 77.622 -33.475 76.523 L -33.475 69.519 C -33.475 68.42 -32.575 67.521 -31.475 67.521 Z" fill="url(#paint5_linear_31_1501)"/>
    <path d="M -12.722 74.021 L -26.227 74.021 C -28.567 74.021 -30.475 72.112 -30.475 69.771 C -30.475 67.43 -28.567 65.521 -26.227 65.521 L -12.722 65.521 C -10.383 65.521 -8.475 67.43 -8.475 69.771 C -8.475 72.102 -10.393 74.021 -12.722 74.021 Z" fill="url(#paint6_linear_31_1501)"/>
    <path d="M -16.947 81.521 L -22.003 81.521 C -22.814 81.521 -23.475 80.848 -23.475 80.021 C -23.475 79.195 -22.814 78.521 -22.003 78.521 L -16.947 78.521 C -16.136 78.521 -15.475 79.195 -15.475 80.021 C -15.475 80.848 -16.136 81.521 -16.947 81.521 Z" fill="url(#paint7_linear_31_1501)"/>
    <path d="M -31.975 60.521 C -31.146 60.521 -30.475 59.85 -30.475 59.021 C -30.475 58.193 -31.146 57.521 -31.975 57.521 C -32.803 57.521 -33.475 58.193 -33.475 59.021 C -33.475 59.85 -32.803 60.521 -31.975 60.521 Z" fill="url(#paint8_radial_31_1501)"/>
    <path d="M -6.975 59.521 L -6.975 68.611" stroke="url(#paint9_linear_31_1501)" stroke-miterlimit="10"/>
    <path d="M -6.975 60.621 C -6.119 60.621 -5.425 59.927 -5.425 59.071 C -5.425 58.215 -6.119 57.521 -6.975 57.521 C -7.831 57.521 -8.525 58.215 -8.525 59.071 C -8.525 59.927 -7.831 60.621 -6.975 60.621 Z" fill="url(#paint10_radial_31_1501)"/>
    <rect x="-28.475" y="67.521" width="4.5" height="6" rx="2" fill="url(#paint11_radial_31_1501)"/>
    <rect x="-16.975" y="67.521" width="4.5" height="6" rx="2" fill="url(#paint12_radial_31_1501)"/>
    <rect x="-24.475" y="58.521" width="10" height="3" rx="1.5" fill="url(#paint13_linear_31_1501)"/>
    <rect x="-24.475" y="58.521" width="10" height="3" rx="1.5" fill="url(#paint14_radial_31_1501)"/>
    <path d="M -7.475 78.461 L -7.475 67.451 C -6.375 67.451 -5.475 68.351 -5.475 69.451 L -5.475 76.461 C -5.475 77.561 -6.375 78.461 -7.475 78.461 Z" fill="url(#paint15_linear_31_1501)"/>
    <rect x="-26.475" y="67.521" width="2.5" height="5" rx="1.25" fill="url(#paint16_linear_31_1501)"/>
    <rect x="-26.475" y="67.521" width="2.5" height="5" rx="1.25" fill="url(#paint17_radial_31_1501)"/>
    <rect x="-14.975" y="67.521" width="2.5" height="5" rx="1.25" fill="url(#paint18_linear_31_1501)"/>
    <rect x="-14.975" y="67.521" width="2.5" height="5" rx="1.25" fill="url(#paint19_radial_31_1501)"/>
    <g filter="url(#filter0_f_31_1501)" transform="matrix(1, 0, 0, 1, -35.474716, 55.521297)">
      <line x1="3.625" y1="5" x2="3.625" y2="11" stroke="url(#paint20_linear_31_1501)" stroke-width="0.25"/>
    </g>
    <g filter="url(#filter1_f_31_1501)" transform="matrix(1, 0, 0, 1, -35.474716, 55.521297)">
      <line x1="28.625" y1="5" x2="28.625" y2="11" stroke="url(#paint21_linear_31_1501)" stroke-width="0.25"/>
    </g>
    <ellipse cx="-6.475" cy="69.021" rx="1" ry="1.5" fill="url(#paint22_radial_31_1501)"/>
    <ellipse cx="-6.475" cy="72.021" rx="1" ry="4.5" fill="url(#paint23_radial_31_1501)"/>
    <path fill-rule="evenodd" clip-rule="evenodd" d="M -15.699 58.547 C -15.092 58.659 -14.613 59.138 -14.5 59.746 C -14.602 60.19 -15 60.521 -15.475 60.521 C -16.027 60.521 -16.475 60.074 -16.475 59.521 C -16.475 59.046 -16.143 58.648 -15.699 58.547 Z" fill="url(#paint24_radial_31_1501)"/>
  </g>
  <g transform="matrix(0.912014, 0, 0, 0.912014, 52.059139, -40.926811)" style="">
    <path d="M 2.318 60.753 C 6.322 62.057 7.567 66.231 7.148 70.005 C 6.835 72.822 5.42 75.19 2.783 76.343 C 0.754 77.23 -1.655 77.324 -3.801 76.828 C -6.668 76.163 -8.586 74.307 -9.316 71.454 C -9.797 69.573 -9.802 67.693 -9.332 65.813 C -8.004 60.502 -2.25 59.266 2.318 60.753 Z M 3.056 66.544 C 2.569 65.103 1.301 64.18 -0.225 64.168 C -1.143 64.162 -2.266 64.065 -3.079 64.277 C -5.759 64.976 -6.235 68.069 -5.603 70.333 C -5.16 71.918 -4.01 72.876 -2.393 72.994 C -1.571 73.054 -0.783 73.055 -0.027 72.998 C 3.235 72.751 3.904 69.055 3.056 66.544 Z" style="fill: url(#gradient-0);"/>
    <path d="M 12.939 75.241 C 12.835 75.15 12.783 75.174 12.783 75.312 L 12.783 83.22 C 12.783 83.245 12.773 83.269 12.755 83.286 C 12.737 83.304 12.714 83.314 12.689 83.314 L 8.743 83.314 C 8.718 83.314 8.694 83.304 8.677 83.286 C 8.659 83.269 8.649 83.245 8.649 83.22 C 8.658 77.908 8.612 72.684 8.642 67.369 C 8.655 65.052 8.656 62.746 8.645 60.45 C 8.645 60.425 8.655 60.401 8.673 60.383 C 8.69 60.365 8.714 60.355 8.739 60.355 L 12.687 60.355 C 12.712 60.355 12.736 60.365 12.753 60.383 C 12.771 60.4 12.781 60.424 12.781 60.449 L 12.785 61.992 C 12.786 62.145 12.84 62.167 12.947 62.058 C 14.566 60.401 17.189 59.877 19.413 60.374 C 28.319 62.362 27.31 76.851 17.936 77.128 C 16.55 77.169 15.267 76.842 14.086 76.148 C 13.671 75.904 13.301 75.556 12.939 75.241 Z M 12.784 69.391 C 12.799 71.357 13.792 73.012 15.952 73.015 C 16.935 73.016 18.2 73.122 19.078 72.867 C 21.472 72.172 22.059 69.404 21.618 67.278 C 21.245 65.478 20.059 64.178 18.11 64.165 C 17.375 64.16 16.64 64.158 15.905 64.16 C 14.863 64.162 13.668 64.779 13.214 65.691 C 12.641 66.846 12.773 67.835 12.784 69.391 Z" style="fill: url(#gradient-1);"/>
    <path d="M 30.977 70.135 C 30.995 70.177 31.019 70.249 31.049 70.351 C 31.545 72.04 32.678 72.926 34.446 73.007 C 36.366 73.096 38.208 73.18 39.336 71.362 C 39.344 71.349 39.356 71.337 39.37 71.33 C 39.384 71.322 39.4 71.318 39.415 71.318 L 43.414 71.318 C 43.427 71.318 43.441 71.321 43.453 71.327 C 43.465 71.333 43.476 71.341 43.485 71.352 C 43.494 71.362 43.5 71.374 43.504 71.387 C 43.507 71.401 43.508 71.414 43.506 71.428 C 42.975 74.538 40.765 76.431 37.706 76.932 C 33.076 77.691 28.301 76.434 27.235 71.228 C 26.875 69.475 26.879 67.709 27.246 65.928 C 27.927 62.621 30.32 60.743 33.559 60.308 C 38.342 59.666 42.845 61.216 43.702 66.552 C 43.854 67.501 43.904 68.621 43.851 69.913 C 43.85 69.938 43.84 69.96 43.822 69.977 C 43.805 69.994 43.782 70.003 43.757 70.003 L 31.062 70.003 C 31.047 70.004 31.031 70.007 31.018 70.015 C 31.004 70.022 30.992 70.033 30.984 70.046 C 30.976 70.059 30.97 70.074 30.969 70.09 C 30.968 70.105 30.97 70.121 30.977 70.135 Z M 38.728 65.068 C 38.064 64.461 37.287 64.154 36.397 64.146 C 35.24 64.136 34.53 64.142 34.266 64.164 C 32.772 64.286 31.751 65.024 31.203 66.376 C 31.197 66.39 31.195 66.406 31.196 66.421 C 31.198 66.436 31.203 66.451 31.212 66.464 C 31.22 66.477 31.232 66.487 31.245 66.494 C 31.259 66.502 31.274 66.506 31.289 66.506 L 39.509 66.506 C 39.524 66.506 39.539 66.502 39.552 66.495 C 39.566 66.489 39.577 66.479 39.586 66.467 C 39.594 66.454 39.6 66.44 39.602 66.426 C 39.605 66.411 39.603 66.396 39.599 66.382 C 39.429 65.88 39.139 65.442 38.728 65.068 Z" style="fill: url(#gradient-2);"/>
    <path d="M 49.43 61.363 C 49.431 61.496 49.483 61.52 49.585 61.434 C 50.191 60.922 50.884 60.574 51.664 60.39 C 52.158 60.273 52.724 60.21 53.364 60.201 C 56.282 60.158 59.275 60.851 60.534 63.799 C 61.064 65.039 61.229 66.49 61.231 67.776 C 61.236 70.806 61.237 73.826 61.233 76.835 C 61.233 76.86 61.223 76.884 61.205 76.901 C 61.188 76.918 61.164 76.928 61.139 76.928 L 57.198 76.93 C 57.173 76.93 57.149 76.92 57.132 76.903 C 57.114 76.885 57.104 76.861 57.104 76.836 C 57.108 74.096 57.093 71.357 57.061 68.62 C 57.044 67.213 56.975 65.053 55.389 64.461 C 55.114 64.359 54.649 64.304 53.993 64.299 C 52.94 64.289 52.136 64.293 51.581 64.311 C 49.749 64.371 49.436 66.208 49.436 67.633 C 49.436 70.709 49.431 73.777 49.423 76.837 C 49.423 76.862 49.413 76.886 49.396 76.904 C 49.378 76.921 49.355 76.931 49.33 76.931 L 45.366 76.928 C 45.341 76.928 45.317 76.918 45.299 76.901 C 45.282 76.883 45.272 76.859 45.272 76.834 L 45.272 60.45 C 45.272 60.425 45.282 60.401 45.299 60.383 C 45.317 60.366 45.341 60.356 45.366 60.356 L 49.328 60.356 C 49.353 60.356 49.377 60.366 49.395 60.383 C 49.412 60.401 49.422 60.424 49.422 60.449 L 49.43 61.363 Z" style="fill: url(#gradient-3);"/>
    <path d="M 76.338 62.084 C 76.419 62.147 76.46 62.128 76.46 62.025 L 76.462 60.426 C 76.462 60.401 76.472 60.377 76.49 60.359 C 76.508 60.342 76.531 60.332 76.556 60.332 L 80.522 60.332 C 80.547 60.332 80.57 60.342 80.588 60.359 C 80.606 60.377 80.616 60.401 80.616 60.426 L 80.616 76.835 C 80.616 76.86 80.606 76.884 80.588 76.901 C 80.57 76.919 80.547 76.929 80.522 76.929 L 76.554 76.929 C 76.53 76.929 76.506 76.919 76.488 76.901 C 76.47 76.884 76.461 76.86 76.461 76.835 L 76.461 75.265 C 76.461 75.11 76.408 75.088 76.3 75.199 C 75.168 76.362 73.583 77.015 71.993 77.088 C 69.692 77.193 67.541 76.479 65.979 74.808 C 62.619 71.212 62.859 64.467 67.054 61.555 C 69.569 59.808 73.294 59.617 75.754 61.617 C 75.952 61.778 76.147 61.933 76.338 62.084 Z M 67.485 68.312 C 67.435 70.098 68.017 72.103 69.912 72.798 C 70.738 73.1 71.991 73.06 72.925 73.02 C 73.679 72.986 74.241 72.889 74.612 72.729 C 75.839 72.197 76.421 71.011 76.432 69.675 C 76.449 67.568 76.731 65.228 74.452 64.375 C 74.145 64.261 73.706 64.192 73.136 64.169 C 72.247 64.133 71.506 64.134 70.913 64.171 C 68.659 64.312 67.543 66.232 67.485 68.312 Z" style="fill: url(#gradient-4);"/>
    <path d="M 110.736 76.984 C 107.073 77.524 102.692 76.749 101.084 72.872 C 100.074 70.438 99.997 67.172 100.961 64.679 C 101.958 62.1 104.055 60.739 106.739 60.324 C 108.668 60.027 110.516 60.146 112.282 60.684 C 114.708 61.421 116.483 63.52 116.928 65.991 C 117.162 67.287 117.253 68.595 117.201 69.914 C 117.2 69.938 117.19 69.961 117.172 69.978 C 117.155 69.995 117.131 70.004 117.107 70.004 L 104.408 70.004 C 104.394 70.004 104.38 70.007 104.368 70.013 C 104.355 70.019 104.344 70.028 104.335 70.039 C 104.326 70.05 104.32 70.062 104.317 70.076 C 104.313 70.09 104.313 70.104 104.316 70.118 C 104.686 71.903 106.012 72.954 107.824 73.002 C 109.838 73.056 111.539 73.183 112.675 71.363 C 112.683 71.349 112.695 71.338 112.709 71.33 C 112.723 71.323 112.739 71.319 112.755 71.319 L 116.75 71.319 C 116.764 71.319 116.777 71.321 116.79 71.327 C 116.802 71.333 116.813 71.341 116.822 71.352 C 116.831 71.362 116.837 71.375 116.841 71.388 C 116.845 71.401 116.845 71.415 116.843 71.428 C 116.447 73.785 115.17 75.43 113.013 76.364 C 112.35 76.651 111.591 76.857 110.736 76.984 Z M 111.988 64.994 C 111.079 64.203 110.273 64.178 108.982 64.157 C 108.246 64.145 107.783 64.147 107.594 64.163 C 106.109 64.29 105.092 65.028 104.542 66.377 C 104.536 66.391 104.534 66.406 104.536 66.422 C 104.537 66.437 104.543 66.452 104.551 66.465 C 104.56 66.478 104.571 66.488 104.585 66.495 C 104.599 66.503 104.614 66.506 104.63 66.506 L 112.865 66.506 C 112.881 66.506 112.896 66.503 112.909 66.495 C 112.923 66.488 112.935 66.478 112.943 66.465 C 112.952 66.452 112.957 66.438 112.959 66.423 C 112.961 66.407 112.958 66.392 112.953 66.378 C 112.732 65.823 112.411 65.362 111.988 64.994 Z" style="fill: url(#gradient-5);"/>
    <path d="M 134.472 76.931 L 130.524 76.928 C 130.5 76.928 130.476 76.918 130.458 76.9 C 130.44 76.883 130.431 76.859 130.431 76.834 C 130.432 73.059 130.431 70.534 130.425 69.259 C 130.416 67.614 130.431 64.35 128.029 64.309 C 126.551 64.284 125.519 64.285 124.932 64.312 C 123.042 64.403 122.815 66.176 122.733 67.68 C 122.729 67.742 122.776 67.863 122.776 67.939 C 122.777 70.904 122.777 73.869 122.777 76.835 C 122.777 76.86 122.767 76.884 122.749 76.901 C 122.732 76.919 122.708 76.929 122.683 76.929 L 118.692 76.929 C 118.667 76.929 118.643 76.919 118.626 76.901 C 118.608 76.884 118.598 76.86 118.598 76.835 L 118.598 60.449 C 118.598 60.424 118.608 60.401 118.626 60.383 C 118.643 60.365 118.667 60.355 118.692 60.355 L 122.683 60.356 C 122.708 60.356 122.732 60.366 122.749 60.384 C 122.767 60.401 122.777 60.425 122.777 60.45 L 122.778 61.356 C 122.778 61.492 122.829 61.516 122.932 61.429 C 123.542 60.912 124.242 60.563 125.032 60.381 C 126.761 59.982 129.127 60.196 130.781 60.827 C 133.963 62.042 134.543 65.074 134.557 68.098 C 134.571 71.016 134.574 73.929 134.566 76.837 C 134.566 76.862 134.556 76.885 134.538 76.903 C 134.521 76.921 134.497 76.931 134.472 76.931 Z" style="fill: url(#gradient-6);"/>
    <path d="M 94.747 62.008 C 94.752 61.967 94.753 61.925 94.751 61.881 C 94.734 61.419 94.739 60.933 94.766 60.422 C 94.767 60.398 94.778 60.376 94.795 60.359 C 94.813 60.343 94.836 60.334 94.86 60.334 L 98.831 60.334 C 98.856 60.334 98.88 60.344 98.898 60.361 C 98.915 60.379 98.925 60.403 98.925 60.428 C 98.927 65.488 98.927 70.582 98.924 75.708 C 98.922 79.833 96.416 82.72 92.213 82.985 C 88.438 83.225 83.167 82.701 82.93 77.685 C 82.929 77.672 82.931 77.659 82.936 77.647 C 82.94 77.635 82.947 77.624 82.956 77.615 C 82.964 77.606 82.975 77.599 82.987 77.594 C 82.998 77.589 83.011 77.586 83.024 77.586 L 86.963 77.586 C 86.983 77.586 87.003 77.592 87.019 77.604 C 87.035 77.616 87.047 77.633 87.053 77.653 C 87.122 77.878 87.105 78.094 87.22 78.284 C 87.716 79.1 91.069 78.822 92.258 78.801 C 93.683 78.776 94.589 78.21 94.714 76.718 C 94.753 76.248 94.763 75.777 94.742 75.303 C 94.736 75.163 94.683 75.142 94.582 75.241 C 93.513 76.297 92.199 76.907 90.639 77.072 C 85.784 77.586 82.267 73.901 82.023 69.252 C 81.973 68.303 82 67.39 82.202 66.482 C 82.651 64.472 83.816 62.565 85.571 61.445 C 87.638 60.126 90.428 59.754 92.716 60.801 C 93.404 61.115 94.028 61.537 94.589 62.064 C 94.679 62.149 94.732 62.13 94.747 62.008 Z M 86.882 71.919 C 87.484 72.49 88.143 72.835 88.857 72.955 C 89.521 73.067 90.807 73.035 91.585 72.995 C 93.408 72.902 94.639 71.768 94.718 69.961 C 94.816 67.761 95.165 64.926 92.286 64.236 C 91.487 64.045 90.092 64.116 89.426 64.142 C 87.957 64.198 86.912 64.879 86.291 66.186 C 85.476 67.9 85.667 70.487 86.875 71.912 C 86.877 71.914 86.88 71.917 86.882 71.919 Z" style="fill: url(#gradient-7);"/>
    <path d="M 141.298 76.92 C 138.393 76.902 136.33 74.937 136.327 71.999 C 136.322 66.861 136.321 61.735 136.323 56.62 C 136.323 56.595 136.333 56.571 136.35 56.553 C 136.368 56.535 136.392 56.525 136.417 56.525 L 140.359 56.531 C 140.384 56.531 140.408 56.541 140.426 56.558 C 140.443 56.576 140.453 56.6 140.453 56.625 L 140.453 60.237 C 140.453 60.262 140.463 60.286 140.481 60.304 C 140.498 60.321 140.522 60.331 140.547 60.331 L 143.222 60.332 C 143.246 60.332 143.27 60.342 143.288 60.36 C 143.306 60.377 143.315 60.401 143.315 60.426 C 143.317 61.507 143.318 62.584 143.317 63.658 C 143.317 63.834 143.269 64.115 143.318 64.358 C 143.321 64.372 143.321 64.386 143.317 64.399 C 143.314 64.413 143.308 64.425 143.299 64.436 C 143.291 64.447 143.28 64.456 143.267 64.462 C 143.255 64.468 143.241 64.471 143.227 64.471 L 140.551 64.491 C 140.526 64.491 140.503 64.501 140.485 64.518 C 140.467 64.535 140.457 64.559 140.457 64.584 C 140.447 67.182 140.449 69.795 140.464 72.422 C 140.466 72.691 140.724 72.772 140.967 72.773 C 141.722 72.775 142.473 72.775 143.22 72.773 C 143.232 72.773 143.244 72.775 143.256 72.78 C 143.267 72.785 143.278 72.792 143.286 72.8 C 143.295 72.809 143.302 72.819 143.307 72.831 C 143.311 72.842 143.314 72.854 143.314 72.867 L 143.3 76.839 C 143.3 76.864 143.29 76.887 143.272 76.905 C 143.255 76.923 143.231 76.933 143.206 76.933 C 142.536 76.928 141.901 76.924 141.298 76.92 Z" style="fill: url(#gradient-8);"/>
  </g>
</svg>